<svg xmlns="http://www.w3.org/2000/svg" xmlns:xlink="http://www.w3.org/1999/xlink" width="500" zoomAndPan="magnify" viewBox="0 0 375 374.999991" height="500" preserveAspectRatio="xMidYMid meet" version="1.0"><defs><g/><clipPath id="id1"><path d="M 134.738281 114.660156 L 240.488281 114.660156 L 240.488281 211.34375 L 134.738281 211.34375 Z M 134.738281 114.660156 " clip-rule="nonzero"/></clipPath></defs><g clip-path="url(#id1)"><path fill="rgb(100%, 100%, 100%)" d="M 183.074219 114.765625 C 156.417969 114.765625 134.730469 136.429688 134.730469 163.054688 C 134.730469 189.679688 156.417969 211.34375 183.082031 211.34375 L 222.589844 211.171875 C 232.457031 211.171875 240.488281 203.152344 240.488281 193.292969 C 240.488281 183.433594 232.457031 175.410156 222.585938 175.410156 L 188.074219 175.496094 C 188.035156 175.496094 188 175.5 187.960938 175.503906 C 181.125 175.40625 175.589844 169.820312 175.589844 162.96875 C 175.589844 156.109375 181.125 150.523438 187.964844 150.433594 C 188.003906 150.433594 188.039062 150.4375 188.078125 150.4375 C 188.082031 150.4375 188.082031 150.4375 188.082031 150.4375 L 188.085938 150.4375 C 188.101562 150.4375 188.121094 150.4375 188.140625 150.4375 L 222.589844 150.355469 C 232.457031 150.355469 240.488281 142.335938 240.488281 132.476562 C 240.488281 122.617188 232.457031 114.59375 222.582031 114.59375 L 189.59375 114.742188 Z M 235.132812 193.292969 C 235.132812 200.203125 229.507812 205.820312 222.582031 205.820312 L 200.8125 205.933594 C 204.003906 202.703125 205.980469 198.265625 205.980469 193.378906 C 205.980469 188.488281 204.007812 184.054688 200.8125 180.824219 L 222.59375 180.761719 C 229.503906 180.761719 235.132812 186.382812 235.132812 193.292969 Z M 222.589844 119.945312 C 229.503906 119.945312 235.132812 125.5625 235.132812 132.472656 C 235.132812 139.382812 229.503906 145.003906 222.582031 145.003906 L 200.855469 145.0625 C 204.019531 141.835938 205.972656 137.421875 205.972656 132.558594 C 205.972656 127.695312 204.019531 123.28125 200.859375 120.054688 Z M 140.089844 163.054688 C 140.089844 139.378906 159.371094 120.117188 183.082031 120.117188 L 189.355469 120.09375 C 195.675781 120.734375 200.621094 126.082031 200.621094 132.558594 C 200.621094 139.40625 195.09375 144.988281 188.261719 145.085938 C 188.222656 145.085938 188.183594 145.082031 188.140625 145.082031 C 178.265625 145.082031 170.234375 153.105469 170.234375 162.96875 C 170.234375 172.832031 178.269531 180.859375 188.140625 180.859375 C 188.179688 180.859375 188.21875 180.855469 188.257812 180.851562 C 195.09375 180.949219 200.621094 186.527344 200.621094 193.378906 C 200.621094 200.285156 194.996094 205.90625 188.078125 205.90625 C 187.867188 205.90625 187.660156 205.929688 187.464844 205.976562 L 183.074219 205.992188 C 159.371094 205.992188 140.089844 186.730469 140.089844 163.054688 Z M 140.089844 163.054688 " fill-opacity="1" fill-rule="nonzero"/></g><g fill="rgb(100%, 100%, 100%)" fill-opacity="1"><g transform="translate(146.040573, 247.119829)"><g><path d="M 7.777344 -2.542969 C 6 -2.542969 4.464844 -3.433594 4.367188 -5.375 L 0.71875 -5.375 C 0.742188 -1.390625 4.03125 0.382812 7.632812 0.382812 C 10.96875 0.382812 14.398438 -1.03125 14.398438 -4.871094 C 14.398438 -11.089844 4.96875 -9 4.96875 -11.902344 C 4.96875 -13.128906 6.382812 -13.609375 7.390625 -13.609375 C 9.191406 -13.609375 10.175781 -13.054688 10.367188 -11.351562 L 13.847656 -11.351562 C 13.726562 -15.070312 10.703125 -16.558594 7.34375 -16.558594 C 4.367188 -16.558594 1.246094 -14.976562 1.246094 -11.617188 C 1.246094 -5.59375 10.679688 -7.632812 10.679688 -4.464844 C 10.679688 -3 8.902344 -2.542969 7.777344 -2.542969 Z M 7.777344 -2.542969 "/></g></g></g><g fill="rgb(100%, 100%, 100%)" fill-opacity="1"><g transform="translate(162.360599, 247.119829)"><g><path d="M 5.039062 0 L 5.039062 -16.320312 L 1.441406 -16.320312 L 1.441406 0 Z M 5.039062 0 "/></g></g></g><g fill="rgb(100%, 100%, 100%)" fill-opacity="1"><g transform="translate(170.040609, 247.119829)"><g><path d="M 10.894531 -3.265625 L 5.039062 -3.265625 L 5.039062 -6.550781 L 10.65625 -6.550781 L 10.65625 -9.816406 L 5.039062 -9.816406 L 5.039062 -13.054688 L 10.894531 -13.054688 L 10.894531 -16.320312 L 1.441406 -16.320312 L 1.441406 0 L 10.894531 0 Z M 10.894531 -3.265625 "/></g></g></g><g fill="rgb(100%, 100%, 100%)" fill-opacity="1"><g transform="translate(183.576632, 247.119829)"><g><path d="M 5.039062 -5.832031 L 5.0625 -5.832031 L 8.953125 0 L 13.511719 0 L 8.832031 -6 C 10.894531 -6.503906 12.550781 -8.328125 12.550781 -11.089844 C 12.550781 -14.183594 10.199219 -16.320312 7.558594 -16.320312 L 1.441406 -16.320312 L 1.441406 0 L 5.039062 0 Z M 6.960938 -13.488281 C 8.015625 -13.488281 9.121094 -12.574219 9.121094 -11.089844 C 9.121094 -9.527344 8.015625 -8.664062 6.960938 -8.664062 L 5.039062 -8.664062 L 5.039062 -13.488281 Z M 6.960938 -13.488281 "/></g></g></g><g fill="rgb(100%, 100%, 100%)" fill-opacity="1"><g transform="translate(198.000656, 247.119829)"><g><path d="M 5.039062 -5.832031 L 5.0625 -5.832031 L 8.953125 0 L 13.511719 0 L 8.832031 -6 C 10.894531 -6.503906 12.550781 -8.328125 12.550781 -11.089844 C 12.550781 -14.183594 10.199219 -16.320312 7.558594 -16.320312 L 1.441406 -16.320312 L 1.441406 0 L 5.039062 0 Z M 6.960938 -13.488281 C 8.015625 -13.488281 9.121094 -12.574219 9.121094 -11.089844 C 9.121094 -9.527344 8.015625 -8.664062 6.960938 -8.664062 L 5.039062 -8.664062 L 5.039062 -13.488281 Z M 6.960938 -13.488281 "/></g></g></g><g fill="rgb(100%, 100%, 100%)" fill-opacity="1"><g transform="translate(212.424679, 247.119829)"><g><path d="M 10.320312 -6.238281 L 6.191406 -6.238281 L 8.257812 -12.046875 Z M 16.414062 0 L 9.792969 -16.320312 L 6.742188 -16.320312 L 0.121094 0 L 3.984375 0 L 5.160156 -3.289062 L 11.375 -3.289062 L 12.550781 0 Z M 16.414062 0 "/></g></g></g><g fill="rgb(100%, 100%, 100%)" fill-opacity="1"><g transform="translate(157.708331, 262.369845)"><g><path d="M 3.238281 -1.058594 C 2.5 -1.058594 1.859375 -1.429688 1.820312 -2.238281 L 0.300781 -2.238281 C 0.308594 -0.578125 1.679688 0.160156 3.179688 0.160156 C 4.570312 0.160156 6 -0.429688 6 -2.03125 C 6 -4.617188 2.070312 -3.75 2.070312 -4.957031 C 2.070312 -5.46875 2.660156 -5.667969 3.078125 -5.667969 C 3.828125 -5.667969 4.238281 -5.4375 4.320312 -4.730469 L 5.769531 -4.730469 C 5.71875 -6.277344 4.457031 -6.898438 3.058594 -6.898438 C 1.820312 -6.898438 0.519531 -6.238281 0.519531 -4.839844 C 0.519531 -2.328125 4.449219 -3.179688 4.449219 -1.859375 C 4.449219 -1.25 3.710938 -1.058594 3.238281 -1.058594 Z M 3.238281 -1.058594 "/></g></g></g><g fill="rgb(100%, 100%, 100%)" fill-opacity="1"><g transform="translate(165.205843, 262.369845)"><g><path d="M 5.847656 -3.410156 C 5.847656 -2.359375 4.898438 -1.398438 3.847656 -1.398438 C 2.800781 -1.398438 1.847656 -2.359375 1.847656 -3.410156 C 1.847656 -4.457031 2.800781 -5.410156 3.847656 -5.410156 C 4.898438 -5.410156 5.847656 -4.457031 5.847656 -3.410156 Z M 7.347656 -3.398438 C 7.347656 -5.277344 5.730469 -6.898438 3.847656 -6.898438 C 1.96875 -6.898438 0.351562 -5.277344 0.351562 -3.398438 C 0.351562 -1.519531 1.96875 0.101562 3.847656 0.101562 C 5.730469 0.101562 7.347656 -1.519531 7.347656 -3.398438 Z M 7.347656 -3.398438 "/></g></g></g><g fill="rgb(100%, 100%, 100%)" fill-opacity="1"><g transform="translate(174.102807, 262.369845)"><g><path d="M 4.4375 -2.730469 L 4.4375 -4.089844 L 2.097656 -4.089844 L 2.097656 -5.4375 L 4.539062 -5.4375 L 4.539062 -6.796875 L 0.601562 -6.796875 L 0.601562 0 L 2.097656 0 L 2.097656 -2.730469 Z M 4.4375 -2.730469 "/></g></g></g><g fill="rgb(100%, 100%, 100%)" fill-opacity="1"><g transform="translate(180.340816, 262.369845)"><g><path d="M 3.488281 -5.4375 L 5.429688 -5.4375 L 5.429688 -6.796875 L 0.0507812 -6.796875 L 0.0507812 -5.4375 L 1.988281 -5.4375 L 1.988281 0 L 3.488281 0 Z M 3.488281 -5.4375 "/></g></g></g><g fill="rgb(100%, 100%, 100%)" fill-opacity="1"><g transform="translate(187.018657, 262.369845)"><g><path d="M 9.078125 -6.796875 L 7.429688 -6.796875 L 6.628906 -2.109375 L 5.296875 -6.796875 L 3.828125 -6.796875 L 2.5 -2.109375 L 1.699219 -6.796875 L 0.0507812 -6.796875 L 1.371094 0 L 3.148438 0 L 4.570312 -4.769531 L 5.976562 0 L 7.757812 0 Z M 9.078125 -6.796875 "/></g></g></g><g fill="rgb(100%, 100%, 100%)" fill-opacity="1"><g transform="translate(197.345055, 262.369845)"><g><path d="M 4.300781 -2.597656 L 2.578125 -2.597656 L 3.4375 -5.019531 Z M 6.839844 0 L 4.078125 -6.796875 L 2.808594 -6.796875 L 0.0507812 0 L 1.660156 0 L 2.148438 -1.371094 L 4.738281 -1.371094 L 5.230469 0 Z M 6.839844 0 "/></g></g></g><g fill="rgb(100%, 100%, 100%)" fill-opacity="1"><g transform="translate(205.432336, 262.369845)"><g><path d="M 2.097656 -2.429688 L 2.109375 -2.429688 L 3.730469 0 L 5.628906 0 L 3.679688 -2.5 C 4.539062 -2.710938 5.230469 -3.46875 5.230469 -4.617188 C 5.230469 -5.910156 4.25 -6.796875 3.148438 -6.796875 L 0.601562 -6.796875 L 0.601562 0 L 2.097656 0 Z M 2.898438 -5.617188 C 3.339844 -5.617188 3.800781 -5.238281 3.800781 -4.617188 C 3.800781 -3.96875 3.339844 -3.609375 2.898438 -3.609375 L 2.097656 -3.609375 L 2.097656 -5.617188 Z M 2.898438 -5.617188 "/></g></g></g><g fill="rgb(100%, 100%, 100%)" fill-opacity="1"><g transform="translate(212.140159, 262.369845)"><g><path d="M 4.539062 -1.359375 L 2.097656 -1.359375 L 2.097656 -2.730469 L 4.4375 -2.730469 L 4.4375 -4.089844 L 2.097656 -4.089844 L 2.097656 -5.4375 L 4.539062 -5.4375 L 4.539062 -6.796875 L 0.601562 -6.796875 L 0.601562 0 L 4.539062 0 Z M 4.539062 -1.359375 "/></g></g></g></svg>