<svg xmlns="http://www.w3.org/2000/svg" xmlns:xlink="http://www.w3.org/1999/xlink" width="500" zoomAndPan="magnify" viewBox="0 0 375 374.999991" height="500" preserveAspectRatio="xMidYMid meet" version="1.0"><defs><g/><clipPath id="id1"><path d="M 134.738281 122.414062 L 240.488281 122.414062 L 240.488281 219.097656 L 134.738281 219.097656 Z M 134.738281 122.414062 " clip-rule="nonzero"/></clipPath></defs><g clip-path="url(#id1)"><path fill="rgb(1.959229%, 3.919983%, 6.669617%)" d="M 183.074219 122.523438 C 156.417969 122.523438 134.730469 144.1875 134.730469 170.808594 C 134.730469 197.433594 156.417969 219.097656 183.082031 219.097656 L 222.589844 218.925781 C 232.457031 218.929688 240.488281 210.90625 240.488281 201.046875 C 240.488281 191.1875 232.457031 183.167969 222.585938 183.167969 L 188.074219 183.253906 C 188.035156 183.253906 188 183.257812 187.960938 183.257812 C 181.125 183.160156 175.589844 177.578125 175.589844 170.722656 C 175.589844 163.867188 181.125 158.28125 187.964844 158.1875 C 188.003906 158.191406 188.039062 158.195312 188.078125 158.195312 C 188.082031 158.195312 188.082031 158.195312 188.082031 158.195312 L 188.085938 158.195312 C 188.101562 158.195312 188.121094 158.195312 188.140625 158.195312 L 222.589844 158.109375 C 232.457031 158.109375 240.488281 150.089844 240.488281 140.230469 C 240.488281 130.371094 232.457031 122.351562 222.582031 122.351562 L 189.59375 122.5 Z M 235.132812 201.046875 C 235.132812 207.957031 229.507812 213.578125 222.582031 213.578125 L 200.8125 213.6875 C 204.003906 210.457031 205.980469 206.019531 205.980469 201.132812 C 205.980469 196.246094 204.007812 191.808594 200.8125 188.578125 L 222.59375 188.519531 C 229.503906 188.519531 235.132812 194.140625 235.132812 201.046875 Z M 222.589844 127.699219 C 229.503906 127.699219 235.132812 133.320312 235.132812 140.230469 C 235.132812 147.136719 229.503906 152.757812 222.582031 152.757812 L 200.855469 152.820312 C 204.019531 149.59375 205.972656 145.175781 205.972656 140.3125 C 205.972656 135.449219 204.019531 131.035156 200.859375 127.808594 Z M 140.089844 170.808594 C 140.089844 147.132812 159.371094 127.871094 183.082031 127.871094 L 189.355469 127.847656 C 195.675781 128.492188 200.621094 133.835938 200.621094 140.316406 C 200.621094 147.164062 195.09375 152.742188 188.261719 152.84375 C 188.222656 152.839844 188.183594 152.835938 188.140625 152.835938 C 178.265625 152.835938 170.234375 160.863281 170.234375 170.726562 C 170.234375 180.589844 178.269531 188.613281 188.140625 188.613281 C 188.179688 188.613281 188.21875 188.609375 188.257812 188.609375 C 195.09375 188.707031 200.621094 194.285156 200.621094 201.132812 C 200.621094 208.042969 194.996094 213.664062 188.078125 213.664062 C 187.867188 213.664062 187.660156 213.6875 187.464844 213.730469 L 183.074219 213.746094 C 159.371094 213.75 140.089844 194.488281 140.089844 170.808594 Z M 140.089844 170.808594 " fill-opacity="1" fill-rule="nonzero"/></g><g fill="rgb(1.959229%, 3.919983%, 6.669617%)" fill-opacity="1"><g transform="translate(146.040573, 246.619846)"><g><path d="M 7.777344 -2.542969 C 6 -2.542969 4.464844 -3.433594 4.367188 -5.375 L 0.71875 -5.375 C 0.742188 -1.390625 4.03125 0.382812 7.632812 0.382812 C 10.96875 0.382812 14.398438 -1.03125 14.398438 -4.871094 C 14.398438 -11.089844 4.96875 -9 4.96875 -11.902344 C 4.96875 -13.128906 6.382812 -13.609375 7.390625 -13.609375 C 9.191406 -13.609375 10.175781 -13.054688 10.367188 -11.351562 L 13.847656 -11.351562 C 13.726562 -15.070312 10.703125 -16.558594 7.34375 -16.558594 C 4.367188 -16.558594 1.246094 -14.976562 1.246094 -11.617188 C 1.246094 -5.59375 10.679688 -7.632812 10.679688 -4.464844 C 10.679688 -3 8.902344 -2.542969 7.777344 -2.542969 Z M 7.777344 -2.542969 "/></g></g></g><g fill="rgb(1.959229%, 3.919983%, 6.669617%)" fill-opacity="1"><g transform="translate(162.360599, 246.619846)"><g><path d="M 5.039062 0 L 5.039062 -16.320312 L 1.441406 -16.320312 L 1.441406 0 Z M 5.039062 0 "/></g></g></g><g fill="rgb(1.959229%, 3.919983%, 6.669617%)" fill-opacity="1"><g transform="translate(170.040609, 246.619846)"><g><path d="M 10.894531 -3.265625 L 5.039062 -3.265625 L 5.039062 -6.550781 L 10.65625 -6.550781 L 10.65625 -9.816406 L 5.039062 -9.816406 L 5.039062 -13.054688 L 10.894531 -13.054688 L 10.894531 -16.320312 L 1.441406 -16.320312 L 1.441406 0 L 10.894531 0 Z M 10.894531 -3.265625 "/></g></g></g><g fill="rgb(1.959229%, 3.919983%, 6.669617%)" fill-opacity="1"><g transform="translate(183.576632, 246.619846)"><g><path d="M 5.039062 -5.832031 L 5.0625 -5.832031 L 8.953125 0 L 13.511719 0 L 8.832031 -6 C 10.894531 -6.503906 12.550781 -8.328125 12.550781 -11.089844 C 12.550781 -14.183594 10.199219 -16.320312 7.558594 -16.320312 L 1.441406 -16.320312 L 1.441406 0 L 5.039062 0 Z M 6.960938 -13.488281 C 8.015625 -13.488281 9.121094 -12.574219 9.121094 -11.089844 C 9.121094 -9.527344 8.015625 -8.664062 6.960938 -8.664062 L 5.039062 -8.664062 L 5.039062 -13.488281 Z M 6.960938 -13.488281 "/></g></g></g><g fill="rgb(1.959229%, 3.919983%, 6.669617%)" fill-opacity="1"><g transform="translate(198.000656, 246.619846)"><g><path d="M 5.039062 -5.832031 L 5.0625 -5.832031 L 8.953125 0 L 13.511719 0 L 8.832031 -6 C 10.894531 -6.503906 12.550781 -8.328125 12.550781 -11.089844 C 12.550781 -14.183594 10.199219 -16.320312 7.558594 -16.320312 L 1.441406 -16.320312 L 1.441406 0 L 5.039062 0 Z M 6.960938 -13.488281 C 8.015625 -13.488281 9.121094 -12.574219 9.121094 -11.089844 C 9.121094 -9.527344 8.015625 -8.664062 6.960938 -8.664062 L 5.039062 -8.664062 L 5.039062 -13.488281 Z M 6.960938 -13.488281 "/></g></g></g><g fill="rgb(1.959229%, 3.919983%, 6.669617%)" fill-opacity="1"><g transform="translate(212.424679, 246.619846)"><g><path d="M 10.320312 -6.238281 L 6.191406 -6.238281 L 8.257812 -12.046875 Z M 16.414062 0 L 9.792969 -16.320312 L 6.742188 -16.320312 L 0.121094 0 L 3.984375 0 L 5.160156 -3.289062 L 11.375 -3.289062 L 12.550781 0 Z M 16.414062 0 "/></g></g></g></svg>